<svg id="Calque_1" data-name="Calque 1" xmlns="http://www.w3.org/2000/svg" viewBox="0 0 558.59 514.29"><defs><style>.cls-1{fill:#3aaa35;}.cls-2{fill:#fff;}</style></defs><polygon class="cls-1" points="0 514.29 0 79.24 558.6 0 558.6 230.18 0 514.29"/><path class="cls-2" d="M118.43,197.23c-14.87-23-22.07-44.76-28.33-73.25,3.13-.93,10.33-1.87,16.75-1.87a75.83,75.83,0,0,1,8.6.46c4.23,23.17,10.18,42.89,13.93,52.59a9.35,9.35,0,0,1,.94,3.6h.16a11.49,11.49,0,0,1,.78-3.6c4.07-10.64,9.23-29.27,13.77-52.59a82.59,82.59,0,0,1,9.08-.46A61.59,61.59,0,0,1,169.45,124c-6.73,29.11-14.56,51.18-28,73.25A56.57,56.57,0,0,1,130,198.32,58.21,58.21,0,0,1,118.43,197.23Z"/><path class="cls-2" d="M181.49,197.23V123.05a56.42,56.42,0,0,1,11.58-.94,60.73,60.73,0,0,1,11.74.94v74.18a72,72,0,0,1-11.74.94A74.47,74.47,0,0,1,181.49,197.23Z"/><path class="cls-2" d="M290.57,153.41v39A100,100,0,0,1,253,199.73c-21.29,0-33.65-8.14-33.65-24.41,0-15.65,13.46-23.63,32.4-23.48A58.21,58.21,0,0,1,267.41,154v-3c0-6.42-4.39-11-15.34-11a35,35,0,0,0-20.19,6.42,20.42,20.42,0,0,1-10-14.87c4.23-3.75,16-10.8,32.24-10.8C275.7,120.85,290.57,130.24,290.57,153.41Zm-34.43,30a40.09,40.09,0,0,0,11.27-1.72V168.12a45.4,45.4,0,0,0-12.84-1.72c-7.35,0-11.89,2.5-11.89,8S247.22,183.45,256.14,183.45Z"/><path class="cls-2" d="M379.61,131.18v61.51c0,24.57-16.75,36.15-39,36.15-17.84,0-29.89-6.42-36.62-13.93A19.24,19.24,0,0,1,316.7,200.2c5.47,6.26,12.36,10.17,22.69,10.17,12.05,0,16.9-5.47,16.9-13.46v-2.66A42.65,42.65,0,0,1,343.61,196c-21.91,0-39.9-12.53-39.9-36.31,0-25,18.93-39.29,41.63-39.29C359.58,120.38,371.78,125.08,379.61,131.18Zm-23.32,44.14V142.14a28.49,28.49,0,0,0-10.49-2c-10.32,0-18.62,6.89-18.62,18.63,0,11.42,7.83,18.47,18.62,18.47A26.75,26.75,0,0,0,356.29,175.32Z"/><path class="cls-2" d="M467.71,165.93H418.26c1.41,10.48,7.2,15.18,18.31,15.18,9.39,0,16.12-3.76,21.91-7.51,4.85,3.75,7.82,10,8.45,15.8-6.57,5-16.75,10.49-32.87,10.49-23,0-39.59-14.24-39.59-39.13,0-23.47,16.59-39.91,38.81-39.91,21,0,35.21,13.31,35.21,34.12A64.16,64.16,0,0,1,467.71,165.93Zm-21.28-13.15c0-7.2-3.45-13.77-13-14.24-8.92,0-14.09,5.79-15.18,14.24Z"/></svg>